<svg width="29" height="29" viewBox="0 0 29 29" fill="none" xmlns="http://www.w3.org/2000/svg">
<g filter="url(#filter0_d_1_1259)">
<rect width="23.8074" height="23.443" transform="translate(3.3291 0.00524902) rotate(8)" fill="#F17300"/>
<path d="M12.5719 18.7031C12.3173 18.6443 12.126 18.5187 11.998 18.3263C11.8721 18.1248 11.8364 17.9059 11.891 17.6694L13.4783 10.7943L13.6 11.1385L12.4341 11.6452C12.2837 11.7158 12.113 11.7291 11.922 11.685C11.7038 11.6346 11.5317 11.5087 11.4058 11.3072C11.2799 11.1057 11.2432 10.8913 11.2956 10.6639C11.3628 10.3729 11.5584 10.169 11.8823 10.0522L14.149 9.19617C14.2546 9.15351 14.3651 9.13113 14.4806 9.12904C14.6051 9.12906 14.7174 9.14061 14.8174 9.1637C15.0811 9.22459 15.2714 9.35473 15.3882 9.55411C15.5071 9.74441 15.5393 9.95778 15.4847 10.1942L13.6644 18.0788C13.6098 18.3153 13.4772 18.4954 13.2666 18.6192C13.0672 18.736 12.8357 18.764 12.5719 18.7031Z" fill="white"/>
</g>
<defs>
<filter id="filter0_d_1_1259" x="0.0664673" y="0.00524902" width="28.8384" height="28.5282" filterUnits="userSpaceOnUse" color-interpolation-filters="sRGB">
<feFlood flood-opacity="0" result="BackgroundImageFix"/>
<feColorMatrix in="SourceAlpha" type="matrix" values="0 0 0 0 0 0 0 0 0 0 0 0 0 0 0 0 0 0 127 0" result="hardAlpha"/>
<feOffset dx="2" dy="2"/>
<feComposite in2="hardAlpha" operator="out"/>
<feColorMatrix type="matrix" values="0 0 0 0 0.27451 0 0 0 0 0.27451 0 0 0 0 0.27451 0 0 0 1 0"/>
<feBlend mode="normal" in2="BackgroundImageFix" result="effect1_dropShadow_1_1259"/>
<feBlend mode="normal" in="SourceGraphic" in2="effect1_dropShadow_1_1259" result="shape"/>
</filter>
</defs>
</svg>
