<svg width="227" height="595" viewBox="0 0 227 595" fill="none" xmlns="http://www.w3.org/2000/svg">
<g clip-path="url(#clip0_1_1243)">
<rect width="227" height="595" rx="8" fill="#FAFAFA"/>
<path d="M-5.91112 519.676L-2.94327 517.026C0.0245887 514.375 5.9603 509.074 13.1278 512.086C20.2952 515.099 28.6945 526.425 35.4779 526.845C42.2613 527.265 47.4289 516.779 53.9488 515.421C60.4688 514.063 68.3411 521.833 73.1644 509.023C77.9877 496.214 79.7619 462.825 84.566 449.886C89.3701 436.946 97.2039 444.456 103.722 443.086C110.24 441.715 115.443 431.465 120.561 420.644C125.678 409.823 130.712 398.432 138.514 405.726C146.316 413.02 156.886 439 165.563 452.199C174.24 465.399 181.023 465.819 185.128 448.159C189.232 430.5 190.658 394.76 196.822 390.997C202.986 387.234 213.887 415.449 220.83 416.946C227.773 418.442 230.757 393.221 232.249 380.611L233.742 368" stroke="#F17300"/>
<path d="M-2.94362 517.026L-5.91148 519.676L-5.91148 596.709L233.741 596.709L233.741 368L232.249 380.611C230.757 393.221 227.772 418.442 220.83 416.945C213.887 415.449 202.985 387.234 196.822 390.997C190.658 394.76 189.232 430.499 185.127 448.159C181.023 465.819 174.239 465.399 165.562 452.199C156.885 439 146.315 413.02 138.513 405.726C130.712 398.432 125.678 409.823 120.56 420.644C115.442 431.465 110.24 441.715 103.722 443.086C97.2035 444.456 89.3697 436.946 84.5656 449.885C79.7616 462.825 77.9873 496.214 73.164 509.023C68.3407 521.833 60.4684 514.063 53.9485 515.421C47.4285 516.779 42.2609 527.265 35.4775 526.845C28.6941 526.425 20.2949 515.098 13.1274 512.086C5.95994 509.074 0.0242315 514.375 -2.94362 517.026Z" fill="url(#paint0_linear_1_1243)" stroke="#F17300"/>
</g>
<defs>
<linearGradient id="paint0_linear_1_1243" x1="97" y1="57.5001" x2="97" y2="547" gradientUnits="userSpaceOnUse">
<stop stop-color="#F17300"/>
<stop offset="1" stop-color="#F17300" stop-opacity="0"/>
</linearGradient>
<clipPath id="clip0_1_1243">
<rect width="227" height="595" rx="8" fill="white"/>
</clipPath>
</defs>
</svg>
