<svg width="14" height="15" viewBox="0 0 14 15" fill="none" xmlns="http://www.w3.org/2000/svg">
<path opacity="0.34" d="M11.9583 6.04166C12.8333 6.04166 12.8333 6.33332 12.8333 6.91666V8.08332C12.8333 8.66666 12.8333 8.95832 11.9583 8.95832" stroke="#98949E" stroke-linecap="round" stroke-linejoin="round"/>
<path opacity="0.34" d="M3.72168 6.33334C3.91418 7.09751 3.91418 7.90251 3.72168 8.66668" stroke="#98949E" stroke-linecap="round" stroke-linejoin="round"/>
<path opacity="0.34" d="M5.76331 6.33334C5.95581 7.09751 5.95581 7.90251 5.76331 8.66668" stroke="#98949E" stroke-linecap="round" stroke-linejoin="round"/>
<path opacity="0.34" d="M7.80499 6.33334C7.99749 7.09751 7.99749 7.90251 7.80499 8.66668" stroke="#98949E" stroke-linecap="round" stroke-linejoin="round"/>
<path d="M7.58335 11.5833H4.08335C1.75002 11.5833 1.16669 11 1.16669 8.66666V6.33332C1.16669 3.99999 1.75002 3.41666 4.08335 3.41666H7.58335C9.91669 3.41666 10.5 3.99999 10.5 6.33332V8.66666C10.5 11 9.91669 11.5833 7.58335 11.5833Z" stroke="#98949E" stroke-linecap="round" stroke-linejoin="round"/>
</svg>
