<svg width="14" height="14" viewBox="0 0 14 14" fill="none" xmlns="http://www.w3.org/2000/svg">
<path opacity="0.4" d="M3.79169 12.8333V8.75" stroke="#98949E" stroke-miterlimit="10" stroke-linecap="round" stroke-linejoin="round"/>
<path opacity="0.4" d="M3.79169 2.91666V1.16666" stroke="#98949E" stroke-miterlimit="10" stroke-linecap="round" stroke-linejoin="round"/>
<path opacity="0.4" d="M10.2083 12.8333V11.0833" stroke="#98949E" stroke-miterlimit="10" stroke-linecap="round" stroke-linejoin="round"/>
<path opacity="0.4" d="M10.2083 5.25V1.16666" stroke="#98949E" stroke-miterlimit="10" stroke-linecap="round" stroke-linejoin="round"/>
<path d="M5.54169 4.08333V7.58333C5.54169 8.225 5.25002 8.75 4.37502 8.75H3.20835C2.33335 8.75 2.04169 8.225 2.04169 7.58333V4.08333C2.04169 3.44166 2.33335 2.91666 3.20835 2.91666H4.37502C5.25002 2.91666 5.54169 3.44166 5.54169 4.08333Z" stroke="#98949E" stroke-miterlimit="10" stroke-linecap="round" stroke-linejoin="round"/>
<path d="M11.9583 6.41667V9.91667C11.9583 10.5583 11.6666 11.0833 10.7916 11.0833H9.62498C8.74998 11.0833 8.45831 10.5583 8.45831 9.91667V6.41667C8.45831 5.775 8.74998 5.25 9.62498 5.25H10.7916C11.6666 5.25 11.9583 5.775 11.9583 6.41667Z" stroke="#98949E" stroke-miterlimit="10" stroke-linecap="round" stroke-linejoin="round"/>
</svg>
