<svg width="14" height="15" viewBox="0 0 14 15" fill="none" xmlns="http://www.w3.org/2000/svg">
<g id="vuesax/twotone/category-2">
<g id="vuesax/twotone/category-2_2">
<g id="category-2">
<path id="Vector" d="M9.91669 6.33332H11.0834C12.25 6.33332 12.8334 5.74999 12.8334 4.58332V3.41666C12.8334 2.24999 12.25 1.66666 11.0834 1.66666H9.91669C8.75002 1.66666 8.16669 2.24999 8.16669 3.41666V4.58332C8.16669 5.74999 8.75002 6.33332 9.91669 6.33332Z" stroke="#98949E" stroke-miterlimit="10" stroke-linecap="round" stroke-linejoin="round"/>
<path id="Vector_2" d="M2.91669 13.3333H4.08335C5.25002 13.3333 5.83335 12.75 5.83335 11.5833V10.4167C5.83335 9.24999 5.25002 8.66666 4.08335 8.66666H2.91669C1.75002 8.66666 1.16669 9.24999 1.16669 10.4167V11.5833C1.16669 12.75 1.75002 13.3333 2.91669 13.3333Z" stroke="#98949E" stroke-miterlimit="10" stroke-linecap="round" stroke-linejoin="round"/>
<path id="Vector_3" opacity="0.34" d="M3.50002 6.33332C4.78869 6.33332 5.83335 5.28865 5.83335 3.99999C5.83335 2.71133 4.78869 1.66666 3.50002 1.66666C2.21136 1.66666 1.16669 2.71133 1.16669 3.99999C1.16669 5.28865 2.21136 6.33332 3.50002 6.33332Z" stroke="#98949E" stroke-miterlimit="10" stroke-linecap="round" stroke-linejoin="round"/>
<path id="Vector_4" opacity="0.34" d="M10.5 13.3333C11.7887 13.3333 12.8334 12.2887 12.8334 11C12.8334 9.71133 11.7887 8.66666 10.5 8.66666C9.21136 8.66666 8.16669 9.71133 8.16669 11C8.16669 12.2887 9.21136 13.3333 10.5 13.3333Z" stroke="#98949E" stroke-miterlimit="10" stroke-linecap="round" stroke-linejoin="round"/>
</g>
</g>
</g>
</svg>
