<svg width="16" height="17" viewBox="0 0 16 17" fill="none" xmlns="http://www.w3.org/2000/svg">
<path d="M3.6 1.89999H12.4C13.1333 1.89999 13.7333 2.49999 13.7333 3.23333V4.69999C13.7333 5.23333 13.4 5.89999 13.0667 6.23333L10.2 8.76666C9.8 9.09999 9.53333 9.76666 9.53333 10.3V13.1667C9.53333 13.5667 9.26667 14.1 8.93333 14.3L8 14.9C7.13333 15.4333 5.93333 14.8333 5.93333 13.7667V10.2333C5.93333 9.76666 5.66667 9.16666 5.4 8.83333L2.86667 6.16666C2.53333 5.83333 2.26667 5.23333 2.26667 4.83333V3.29999C2.26667 2.49999 2.86667 1.89999 3.6 1.89999Z" stroke="white" stroke-miterlimit="10" stroke-linecap="round" stroke-linejoin="round"/>
</svg>
