<svg width="16" height="16" viewBox="0 0 16 16" fill="none" xmlns="http://www.w3.org/2000/svg">
<path opacity="0.4" d="M6 4.80001V11.1933C6 13.3333 7.33333 14.6667 9.46667 14.6667H11.1933C13.3267 14.6667 14.66 13.3333 14.66 11.2V4.80001C14.6667 2.66668 13.3333 1.33334 11.2 1.33334H9.46667C7.33333 1.33334 6 2.66668 6 4.80001Z" fill="#8F0A13"/>
<path d="M3.71336 5.41334L1.48002 7.64667C1.28669 7.84 1.28669 8.16 1.48002 8.35334L3.71336 10.5867C3.90669 10.78 4.22669 10.78 4.42002 10.5867C4.61336 10.3933 4.61336 10.0733 4.42002 9.88L3.04002 8.5H10.1667C10.44 8.5 10.6667 8.27334 10.6667 8C10.6667 7.72667 10.44 7.5 10.1667 7.5H3.04002L4.42002 6.12C4.52002 6.02 4.56669 5.89334 4.56669 5.76667C4.56669 5.64 4.52002 5.50667 4.42002 5.41334C4.22669 5.21334 3.91336 5.21334 3.71336 5.41334Z" fill="#8F0A13"/>
</svg>
