<svg width="14" height="15" viewBox="0 0 14 15" fill="none" xmlns="http://www.w3.org/2000/svg">
<path opacity="0.4" d="M2.97919 4.43749C2.97919 3.1853 3.99783 2.16666 5.25002 2.16666C6.50189 2.16666 7.52033 3.18477 7.52085 4.43652C7.51557 5.66529 6.55921 6.65527 5.33998 6.70249H5.33997H5.33995H5.33992H5.3399H5.33987H5.33985H5.33982H5.3398H5.33977H5.33974H5.33972H5.33969H5.33967H5.33964H5.33962H5.33959H5.33956H5.33954H5.33951H5.33948H5.33946H5.33943H5.3394H5.33938H5.33935H5.33932H5.33929H5.33927H5.33924H5.33921H5.33918H5.33916H5.33914C5.27905 6.6965 5.21956 6.69715 5.16544 6.70149C3.91865 6.64267 2.97919 5.65338 2.97919 4.43749Z" fill="#5D5FEF" stroke="#5D5FEF"/>
<path d="M2.56536 12.0957L2.56399 12.0948C1.93004 11.6722 1.64331 11.1476 1.64331 10.6383C1.64331 10.1287 1.93044 9.59851 2.56953 9.17041C3.29068 8.69345 4.26222 8.44043 5.25727 8.44043C6.25296 8.44043 7.22128 8.69375 7.93596 9.1702C8.56626 9.5904 8.85173 10.1147 8.85664 10.6287C8.85588 11.1436 8.56856 11.6679 7.93418 12.096C7.21666 12.5776 6.24606 12.8333 5.24998 12.8333C4.2537 12.8333 3.28292 12.5775 2.56536 12.0957Z" fill="#5D5FEF" stroke="#5D5FEF"/>
<path opacity="0.4" d="M9.60424 4.31011L9.60425 4.31011L9.60398 4.30694C9.5756 3.9785 9.4974 3.66724 9.37968 3.37885C9.40008 3.37629 9.4206 3.37408 9.44123 3.37224C10.3093 3.29723 11.0867 3.94503 11.1626 4.8236C11.2329 5.68076 10.6324 6.42443 9.80331 6.53911C9.80315 6.5391 9.80298 6.5391 9.80281 6.5391C9.78684 6.53872 9.71889 6.53711 9.63608 6.55324C9.4105 6.55927 9.19831 6.52252 9.00677 6.45074C9.44125 5.85566 9.66786 5.10531 9.60424 4.31011Z" fill="#5D5FEF" stroke="#5D5FEF"/>
<path d="M12.3297 10.1308L12.3296 10.1308L12.3292 10.1364C12.2997 10.4944 12.0711 10.8539 11.5722 11.1274L11.5715 11.1277C11.3426 11.2536 11.0807 11.351 10.7996 11.4174C10.8924 11.1936 10.9518 10.9577 10.9745 10.7138L10.9745 10.7138L10.975 10.7077C11.0495 9.78388 10.6029 8.94228 9.82199 8.31116C10.5517 8.38055 11.2555 8.62919 11.7552 9.03244L11.7558 9.03295C12.1999 9.39017 12.3624 9.78163 12.3297 10.1308Z" fill="#5D5FEF" stroke="#5D5FEF"/>
</svg>
