<svg width="14" height="15" viewBox="0 0 14 15" fill="none" xmlns="http://www.w3.org/2000/svg">
<path d="M11.0658 13.3333H2.89917C1.14917 13.3333 1.14917 12.5458 1.14917 11.5833V11C1.14917 10.6792 1.41167 10.4167 1.7325 10.4167H12.2325C12.5533 10.4167 12.8158 10.6792 12.8158 11V11.5833C12.8158 12.5458 12.8158 13.3333 11.0658 13.3333Z" stroke="#98949E" stroke-linecap="round" stroke-linejoin="round"/>
<path d="M12.0866 8.08332V10.4167H1.90747V8.08332C1.90747 5.84332 3.4883 3.97082 5.59414 3.52166C5.90914 3.45166 6.2358 3.41666 6.57414 3.41666H7.41997C7.7583 3.41666 8.0908 3.45166 8.4058 3.52166C10.5116 3.97666 12.0866 5.84332 12.0866 8.08332Z" stroke="#98949E" stroke-linecap="round" stroke-linejoin="round"/>
<path opacity="0.34" d="M8.45835 3.12499C8.45835 3.26499 8.44085 3.39332 8.40585 3.52166C8.09085 3.45166 7.75835 3.41666 7.42002 3.41666H6.57419C6.23585 3.41666 5.90919 3.45166 5.59419 3.52166C5.55919 3.39332 5.54169 3.26499 5.54169 3.12499C5.54169 2.31999 6.19502 1.66666 7.00002 1.66666C7.80502 1.66666 8.45835 2.31999 8.45835 3.12499Z" stroke="#98949E" stroke-linecap="round" stroke-linejoin="round"/>
<path opacity="0.34" d="M8.75 6.91666H5.25" stroke="#98949E" stroke-linecap="round" stroke-linejoin="round"/>
</svg>
