<svg width="13" height="13" viewBox="0 0 13 13" fill="none" xmlns="http://www.w3.org/2000/svg">
<path d="M10.895 5.775V4.06C10.895 3.445 10.425 2.765 9.85001 2.55L7.35501 1.615C6.94001 1.46 6.26001 1.46 5.84501 1.615L3.35001 2.555C2.77501 2.77 2.30501 3.45 2.30501 4.06V7.775C2.30501 8.365 2.69501 9.14 3.17001 9.495L5.32001 11.1C5.67001 11.37 6.13501 11.5 6.60001 11.5" stroke="#292D32" stroke-linecap="round" stroke-linejoin="round"/>
<path opacity="0.4" d="M8.60001 10.5C9.70458 10.5 10.6 9.60457 10.6 8.5C10.6 7.39543 9.70458 6.5 8.60001 6.5C7.49544 6.5 6.60001 7.39543 6.60001 8.5C6.60001 9.60457 7.49544 10.5 8.60001 10.5Z" stroke="#292D32" stroke-linecap="round" stroke-linejoin="round"/>
<path opacity="0.4" d="M11.0978 11H11.1023" stroke="#292D32" stroke-linecap="round" stroke-linejoin="round"/>
</svg>
