<svg width="12" height="13" viewBox="0 0 12 13" fill="none" xmlns="http://www.w3.org/2000/svg">
<path d="M10.5 3.49001C8.835 3.32501 7.16 3.24001 5.49 3.24001C4.5 3.24001 3.51 3.29001 2.52 3.39001L1.5 3.49001" stroke="#F02D3A" stroke-linecap="round" stroke-linejoin="round"/>
<path opacity="0.34" d="M4.25 2.985L4.36 2.33C4.44 1.855 4.5 1.5 5.345 1.5H6.655C7.5 1.5 7.565 1.875 7.64 2.335L7.75 2.985" stroke="#F02D3A" stroke-linecap="round" stroke-linejoin="round"/>
<path d="M9.42501 5.07001L9.10001 10.105C9.04501 10.89 9.00001 11.5 7.60501 11.5H4.39501C3.00001 11.5 2.95501 10.89 2.90001 10.105L2.57501 5.07001" stroke="#F02D3A" stroke-linecap="round" stroke-linejoin="round"/>
<path opacity="0.34" d="M5.16501 8.75H6.83001" stroke="#F02D3A" stroke-linecap="round" stroke-linejoin="round"/>
<path opacity="0.34" d="M4.75 6.75H7.25" stroke="#F02D3A" stroke-linecap="round" stroke-linejoin="round"/>
</svg>
