<svg width="14" height="14" viewBox="0 0 14 14" fill="none" xmlns="http://www.w3.org/2000/svg">
<path opacity="0.4" d="M8.75002 1.16667V7C8.75002 7.64167 8.22502 8.16667 7.58335 8.16667H1.16669V3.5C1.16669 2.21083 2.21085 1.16667 3.50002 1.16667H8.75002Z" stroke="#98949E" stroke-linecap="round" stroke-linejoin="round"/>
<path d="M12.8334 8.16667V9.91667C12.8334 10.885 12.0517 11.6667 11.0834 11.6667H10.5C10.5 11.025 9.97502 10.5 9.33335 10.5C8.69169 10.5 8.16669 11.025 8.16669 11.6667H5.83335C5.83335 11.025 5.30835 10.5 4.66669 10.5C4.02502 10.5 3.50002 11.025 3.50002 11.6667H2.91669C1.94835 11.6667 1.16669 10.885 1.16669 9.91667V8.16667H7.58335C8.22502 8.16667 8.75002 7.64167 8.75002 7V2.91667H9.82335C10.2434 2.91667 10.6283 3.14417 10.8383 3.50584L11.8359 5.25H11.0834C10.7625 5.25 10.5 5.5125 10.5 5.83333V7.58333C10.5 7.90417 10.7625 8.16667 11.0834 8.16667H12.8334Z" stroke="#98949E" stroke-linecap="round" stroke-linejoin="round"/>
<path d="M4.66667 12.8333C5.311 12.8333 5.83333 12.311 5.83333 11.6667C5.83333 11.0223 5.311 10.5 4.66667 10.5C4.02233 10.5 3.5 11.0223 3.5 11.6667C3.5 12.311 4.02233 12.8333 4.66667 12.8333Z" stroke="#98949E" stroke-linecap="round" stroke-linejoin="round"/>
<path d="M9.33335 12.8333C9.97769 12.8333 10.5 12.311 10.5 11.6667C10.5 11.0223 9.97769 10.5 9.33335 10.5C8.68902 10.5 8.16669 11.0223 8.16669 11.6667C8.16669 12.311 8.68902 12.8333 9.33335 12.8333Z" stroke="#98949E" stroke-linecap="round" stroke-linejoin="round"/>
<path d="M12.8333 7V8.16667H11.0833C10.7625 8.16667 10.5 7.90417 10.5 7.58333V5.83333C10.5 5.5125 10.7625 5.25 11.0833 5.25H11.8358L12.8333 7Z" stroke="#98949E" stroke-linecap="round" stroke-linejoin="round"/>
</svg>
