<svg width="14" height="14" viewBox="0 0 14 14" fill="none" xmlns="http://www.w3.org/2000/svg">
<path opacity="0.4" d="M10.5817 12.6117C10.0683 12.7633 9.46167 12.8333 8.75 12.8333H5.25C4.53833 12.8333 3.93167 12.7633 3.41833 12.6117C3.54667 11.095 5.10417 9.89915 7 9.89915C8.89583 9.89915 10.4533 11.095 10.5817 12.6117Z" stroke="#98949E" stroke-linecap="round" stroke-linejoin="round"/>
<path d="M12.8334 5.25V8.75C12.8334 10.955 12.1684 12.1625 10.5817 12.6117C10.0684 12.7633 9.46169 12.8333 8.75002 12.8333H5.25002C4.53835 12.8333 3.93169 12.7633 3.41835 12.6117C1.83169 12.1625 1.16669 10.955 1.16669 8.75V5.25C1.16669 2.33334 2.33335 1.16667 5.25002 1.16667H8.75002C11.6667 1.16667 12.8334 2.33334 12.8334 5.25Z" stroke="#98949E" stroke-linecap="round" stroke-linejoin="round"/>
<path opacity="0.4" d="M9.08835 6.17167C9.08835 7.32667 8.15502 8.26582 7.00002 8.26582C5.84502 8.26582 4.91168 7.32667 4.91168 6.17167C4.91168 5.01667 5.84502 4.08333 7.00002 4.08333C8.15502 4.08333 9.08835 5.01667 9.08835 6.17167Z" stroke="#98949E" stroke-linecap="round" stroke-linejoin="round"/>
</svg>
